<mxfile host="65bd71144e">
    <diagram id="HVWA7MTz8POEic55sj-K" name="Page-1">
        <mxGraphModel dx="185" dy="133" grid="1" gridSize="10" guides="1" tooltips="1" connect="1" arrows="1" fold="1" page="1" pageScale="1" pageWidth="827" pageHeight="1169" math="0" shadow="0">
            <root>
                <mxCell id="0"/>
                <mxCell id="1" parent="0"/>
                <mxCell id="2" value="&lt;div style=&quot;color: rgb(238 , 255 , 255) ; background-color: rgb(33 , 33 , 33) ; font-family: &amp;#34;consolas&amp;#34; , &amp;#34;courier new&amp;#34; , monospace ; font-weight: normal ; font-size: 14px ; line-height: 19px&quot;&gt;&lt;div&gt;&lt;span style=&quot;color: #eeffff&quot;&gt;Uma empresa fabricante de picolés deseja armazenar informações acerca de seus negócios. Os picolés fabricados são divididos em frutas e ao leite. Os picolés de frutas podem ser de tomate e jenipapo e os ao leite podem ser de chocolate e groselha. As informações armazenadas dos picolés são: sabor, ingredientes, preço e tipo da embalagem. Todo picolé é vendido em um lote para um determinado revendedor. Todo revendedor possui uma pessoa de contato para eventuais resoluções de problemas. Além disso, armazena-se do revendedor, dados como CNPJ, razão social, nome fantasia, etc. Deseja-se obter relatórios sobre as vendas mensais dos picolés e quais revendedores compraram mais picolés nos últimos meses&lt;/span&gt;&lt;/div&gt;&lt;/div&gt;" style="text;whiteSpace=wrap;html=1;" parent="1" vertex="1">
                    <mxGeometry x="280" width="547" height="220" as="geometry"/>
                </mxCell>
                <mxCell id="114" style="edgeStyle=none;html=1;endArrow=none;endFill=0;" parent="1" source="3" target="108" edge="1">
                    <mxGeometry relative="1" as="geometry"/>
                </mxCell>
                <mxCell id="3" value="Picolé" style="whiteSpace=wrap;html=1;align=center;" parent="1" vertex="1">
                    <mxGeometry x="210" y="380" width="100" height="40" as="geometry"/>
                </mxCell>
                <mxCell id="4" style="edgeStyle=none;html=1;endArrow=none;endFill=0;" parent="1" edge="1">
                    <mxGeometry relative="1" as="geometry">
                        <mxPoint x="262.70819782095305" y="420" as="sourcePoint"/>
                        <mxPoint x="263.1246950475545" y="460.009758478252" as="targetPoint"/>
                    </mxGeometry>
                </mxCell>
                <mxCell id="5" style="edgeStyle=none;html=1;endArrow=none;endFill=0;" parent="1" source="7" target="10" edge="1">
                    <mxGeometry relative="1" as="geometry"/>
                </mxCell>
                <mxCell id="6" style="edgeStyle=none;html=1;endArrow=none;endFill=0;" parent="1" source="7" target="11" edge="1">
                    <mxGeometry relative="1" as="geometry"/>
                </mxCell>
                <mxCell id="7" value="" style="ellipse;whiteSpace=wrap;html=1;aspect=fixed;" parent="1" vertex="1">
                    <mxGeometry x="239.5" y="460" width="40" height="40" as="geometry"/>
                </mxCell>
                <mxCell id="8" value="&lt;span&gt;Tipo&lt;/span&gt;" style="text;html=1;resizable=0;autosize=1;align=center;verticalAlign=middle;points=[];fillColor=none;strokeColor=none;rounded=0;" parent="1" vertex="1">
                    <mxGeometry x="265" y="430" width="40" height="20" as="geometry"/>
                </mxCell>
                <mxCell id="107" style="edgeStyle=none;html=1;endArrow=none;endFill=0;" parent="1" source="10" target="106" edge="1">
                    <mxGeometry relative="1" as="geometry"/>
                </mxCell>
                <mxCell id="10" value="Fruta" style="whiteSpace=wrap;html=1;align=center;" parent="1" vertex="1">
                    <mxGeometry x="139.5" y="560" width="100" height="40" as="geometry"/>
                </mxCell>
                <mxCell id="105" style="edgeStyle=none;html=1;endArrow=none;endFill=0;" parent="1" source="11" target="103" edge="1">
                    <mxGeometry relative="1" as="geometry"/>
                </mxCell>
                <mxCell id="11" value="Ao leite" style="whiteSpace=wrap;html=1;align=center;" parent="1" vertex="1">
                    <mxGeometry x="289.5" y="560" width="100" height="40" as="geometry"/>
                </mxCell>
                <mxCell id="12" value="" style="curved=1;endArrow=none;html=1;endFill=0;" parent="1" edge="1">
                    <mxGeometry width="50" height="50" relative="1" as="geometry">
                        <mxPoint x="242.5" y="527" as="sourcePoint"/>
                        <mxPoint x="222.5" y="507" as="targetPoint"/>
                        <Array as="points">
                            <mxPoint x="202.5" y="567"/>
                        </Array>
                    </mxGeometry>
                </mxCell>
                <mxCell id="13" value="" style="curved=1;endArrow=none;html=1;endFill=0;" parent="1" edge="1">
                    <mxGeometry width="50" height="50" relative="1" as="geometry">
                        <mxPoint x="289.5" y="535" as="sourcePoint"/>
                        <mxPoint x="309.5" y="520" as="targetPoint"/>
                        <Array as="points">
                            <mxPoint x="329.5" y="565"/>
                        </Array>
                    </mxGeometry>
                </mxCell>
                <mxCell id="14" value="&lt;b&gt;&lt;font style=&quot;font-size: 16px&quot;&gt;D&lt;/font&gt;&lt;/b&gt;" style="text;html=1;resizable=0;autosize=1;align=center;verticalAlign=middle;points=[];fillColor=none;strokeColor=none;rounded=0;" parent="1" vertex="1">
                    <mxGeometry x="244.5" y="470" width="30" height="20" as="geometry"/>
                </mxCell>
                <mxCell id="15" style="edgeStyle=none;html=1;endArrow=none;endFill=0;" parent="1" edge="1">
                    <mxGeometry relative="1" as="geometry">
                        <mxPoint x="255.5" y="420" as="sourcePoint"/>
                        <mxPoint x="255.5" y="460" as="targetPoint"/>
                    </mxGeometry>
                </mxCell>
                <mxCell id="121" style="edgeStyle=none;html=1;endArrow=none;endFill=0;" parent="1" source="46" target="116" edge="1">
                    <mxGeometry relative="1" as="geometry"/>
                </mxCell>
                <mxCell id="46" value="Revendedor" style="whiteSpace=wrap;html=1;align=center;" parent="1" vertex="1">
                    <mxGeometry x="594" y="380" width="100" height="40" as="geometry"/>
                </mxCell>
                <mxCell id="47" style="edgeStyle=none;html=1;endArrow=none;endFill=0;" parent="1" edge="1">
                    <mxGeometry relative="1" as="geometry">
                        <mxPoint x="343.20819782095305" y="600" as="sourcePoint"/>
                        <mxPoint x="343.6246950475545" y="640.009758478252" as="targetPoint"/>
                    </mxGeometry>
                </mxCell>
                <mxCell id="48" style="edgeStyle=none;html=1;endArrow=none;endFill=0;" parent="1" source="50" target="52" edge="1">
                    <mxGeometry relative="1" as="geometry"/>
                </mxCell>
                <mxCell id="49" style="edgeStyle=none;html=1;endArrow=none;endFill=0;" parent="1" source="50" target="53" edge="1">
                    <mxGeometry relative="1" as="geometry"/>
                </mxCell>
                <mxCell id="50" value="" style="ellipse;whiteSpace=wrap;html=1;aspect=fixed;" parent="1" vertex="1">
                    <mxGeometry x="320" y="640" width="40" height="40" as="geometry"/>
                </mxCell>
                <mxCell id="51" value="&lt;span&gt;Sabor&lt;/span&gt;" style="text;html=1;resizable=0;autosize=1;align=center;verticalAlign=middle;points=[];fillColor=none;strokeColor=none;rounded=0;" parent="1" vertex="1">
                    <mxGeometry x="340.5" y="610" width="50" height="20" as="geometry"/>
                </mxCell>
                <mxCell id="52" value="Chocolate" style="whiteSpace=wrap;html=1;align=center;" parent="1" vertex="1">
                    <mxGeometry x="289.5" y="740" width="100" height="40" as="geometry"/>
                </mxCell>
                <mxCell id="53" value="Groselha" style="whiteSpace=wrap;html=1;align=center;" parent="1" vertex="1">
                    <mxGeometry x="439.5" y="740" width="100" height="40" as="geometry"/>
                </mxCell>
                <mxCell id="55" value="" style="curved=1;endArrow=none;html=1;endFill=0;" parent="1" edge="1">
                    <mxGeometry width="50" height="50" relative="1" as="geometry">
                        <mxPoint x="389.5" y="705" as="sourcePoint"/>
                        <mxPoint x="409.5" y="690" as="targetPoint"/>
                        <Array as="points">
                            <mxPoint x="440" y="735"/>
                        </Array>
                    </mxGeometry>
                </mxCell>
                <mxCell id="56" value="&lt;b&gt;&lt;font style=&quot;font-size: 16px&quot;&gt;D&lt;/font&gt;&lt;/b&gt;" style="text;html=1;resizable=0;autosize=1;align=center;verticalAlign=middle;points=[];fillColor=none;strokeColor=none;rounded=0;" parent="1" vertex="1">
                    <mxGeometry x="325" y="650" width="30" height="20" as="geometry"/>
                </mxCell>
                <mxCell id="57" style="edgeStyle=none;html=1;endArrow=none;endFill=0;" parent="1" edge="1">
                    <mxGeometry relative="1" as="geometry">
                        <mxPoint x="336" y="600" as="sourcePoint"/>
                        <mxPoint x="336" y="640" as="targetPoint"/>
                    </mxGeometry>
                </mxCell>
                <mxCell id="90" value="" style="curved=1;endArrow=none;html=1;endFill=0;" parent="1" edge="1">
                    <mxGeometry width="50" height="50" relative="1" as="geometry">
                        <mxPoint x="323" y="695" as="sourcePoint"/>
                        <mxPoint x="353" y="695" as="targetPoint"/>
                        <Array as="points">
                            <mxPoint x="343" y="745"/>
                        </Array>
                    </mxGeometry>
                </mxCell>
                <mxCell id="91" style="edgeStyle=none;html=1;endArrow=none;endFill=0;" parent="1" edge="1">
                    <mxGeometry relative="1" as="geometry">
                        <mxPoint x="183.70819782095305" y="600" as="sourcePoint"/>
                        <mxPoint x="184.12469504755427" y="640.009758478252" as="targetPoint"/>
                    </mxGeometry>
                </mxCell>
                <mxCell id="92" style="edgeStyle=none;html=1;endArrow=none;endFill=0;" parent="1" source="94" target="96" edge="1">
                    <mxGeometry relative="1" as="geometry"/>
                </mxCell>
                <mxCell id="93" style="edgeStyle=none;html=1;endArrow=none;endFill=0;" parent="1" source="94" target="97" edge="1">
                    <mxGeometry relative="1" as="geometry"/>
                </mxCell>
                <mxCell id="94" value="" style="ellipse;whiteSpace=wrap;html=1;aspect=fixed;" parent="1" vertex="1">
                    <mxGeometry x="160.5" y="640" width="40" height="40" as="geometry"/>
                </mxCell>
                <mxCell id="95" value="&lt;span&gt;Sabor&lt;/span&gt;" style="text;html=1;resizable=0;autosize=1;align=center;verticalAlign=middle;points=[];fillColor=none;strokeColor=none;rounded=0;" parent="1" vertex="1">
                    <mxGeometry x="181" y="610" width="50" height="20" as="geometry"/>
                </mxCell>
                <mxCell id="96" value="Jenipapo" style="whiteSpace=wrap;html=1;align=center;" parent="1" vertex="1">
                    <mxGeometry x="130" y="740" width="100" height="40" as="geometry"/>
                </mxCell>
                <mxCell id="97" value="Tomate" style="whiteSpace=wrap;html=1;align=center;" parent="1" vertex="1">
                    <mxGeometry y="740" width="100" height="40" as="geometry"/>
                </mxCell>
                <mxCell id="98" value="" style="curved=1;endArrow=none;html=1;endFill=0;" parent="1" edge="1">
                    <mxGeometry width="50" height="50" relative="1" as="geometry">
                        <mxPoint x="116" y="690" as="sourcePoint"/>
                        <mxPoint x="136" y="705" as="targetPoint"/>
                        <Array as="points">
                            <mxPoint x="96" y="730"/>
                        </Array>
                    </mxGeometry>
                </mxCell>
                <mxCell id="99" value="&lt;b&gt;&lt;font style=&quot;font-size: 16px&quot;&gt;D&lt;/font&gt;&lt;/b&gt;" style="text;html=1;resizable=0;autosize=1;align=center;verticalAlign=middle;points=[];fillColor=none;strokeColor=none;rounded=0;" parent="1" vertex="1">
                    <mxGeometry x="165.5" y="650" width="30" height="20" as="geometry"/>
                </mxCell>
                <mxCell id="100" style="edgeStyle=none;html=1;endArrow=none;endFill=0;" parent="1" edge="1">
                    <mxGeometry relative="1" as="geometry">
                        <mxPoint x="176.5" y="600" as="sourcePoint"/>
                        <mxPoint x="176.5" y="640" as="targetPoint"/>
                    </mxGeometry>
                </mxCell>
                <mxCell id="101" value="" style="curved=1;endArrow=none;html=1;endFill=0;" parent="1" edge="1">
                    <mxGeometry width="50" height="50" relative="1" as="geometry">
                        <mxPoint x="163.5" y="695" as="sourcePoint"/>
                        <mxPoint x="193.5" y="695" as="targetPoint"/>
                        <Array as="points">
                            <mxPoint x="183.5" y="745"/>
                        </Array>
                    </mxGeometry>
                </mxCell>
                <mxCell id="103" value="Sabor" style="ellipse;whiteSpace=wrap;html=1;align=center;" parent="1" vertex="1">
                    <mxGeometry x="410" y="560" width="100" height="40" as="geometry"/>
                </mxCell>
                <mxCell id="106" value="Sabor" style="ellipse;whiteSpace=wrap;html=1;align=center;" parent="1" vertex="1">
                    <mxGeometry x="10" y="560" width="100" height="40" as="geometry"/>
                </mxCell>
                <mxCell id="108" value="Tipo" style="ellipse;whiteSpace=wrap;html=1;align=center;" parent="1" vertex="1">
                    <mxGeometry x="94" y="330" width="100" height="40" as="geometry"/>
                </mxCell>
                <mxCell id="109" value="Ingredientes" style="ellipse;shape=doubleEllipse;margin=3;whiteSpace=wrap;html=1;align=center;" parent="1" vertex="1">
                    <mxGeometry x="95.5" y="250" width="100" height="40" as="geometry"/>
                </mxCell>
                <mxCell id="110" value="Preço" style="ellipse;whiteSpace=wrap;html=1;align=center;" parent="1" vertex="1">
                    <mxGeometry x="95.5" y="290" width="100" height="40" as="geometry"/>
                </mxCell>
                <mxCell id="112" value="Embalagem" style="ellipse;whiteSpace=wrap;html=1;align=center;" parent="1" vertex="1">
                    <mxGeometry x="94" y="210" width="100" height="40" as="geometry"/>
                </mxCell>
                <mxCell id="116" value="CNPJ" style="ellipse;whiteSpace=wrap;html=1;align=center;fontStyle=4;" parent="1" vertex="1">
                    <mxGeometry x="594" y="440" width="100" height="40" as="geometry"/>
                </mxCell>
                <mxCell id="117" value="Razão Social" style="ellipse;whiteSpace=wrap;html=1;align=center;" parent="1" vertex="1">
                    <mxGeometry x="594" y="480" width="100" height="40" as="geometry"/>
                </mxCell>
                <mxCell id="118" value="Nome Fantasia" style="ellipse;whiteSpace=wrap;html=1;align=center;" parent="1" vertex="1">
                    <mxGeometry x="594" y="520" width="100" height="40" as="geometry"/>
                </mxCell>
                <mxCell id="128" style="edgeStyle=none;html=1;endArrow=none;endFill=0;" parent="1" source="122" target="127" edge="1">
                    <mxGeometry relative="1" as="geometry"/>
                </mxCell>
                <mxCell id="122" value="Compra" style="shape=associativeEntity;whiteSpace=wrap;html=1;align=center;" parent="1" vertex="1">
                    <mxGeometry x="380" y="370" width="140" height="60" as="geometry"/>
                </mxCell>
                <mxCell id="123" value="" style="endArrow=none;html=1;rounded=0;entryX=1.003;entryY=0.377;entryDx=0;entryDy=0;entryPerimeter=0;exitX=0.002;exitY=0.415;exitDx=0;exitDy=0;exitPerimeter=0;" parent="1" source="122" target="3" edge="1">
                    <mxGeometry relative="1" as="geometry">
                        <mxPoint x="520" y="390" as="sourcePoint"/>
                        <mxPoint x="680" y="390" as="targetPoint"/>
                    </mxGeometry>
                </mxCell>
                <mxCell id="124" value="N" style="resizable=0;html=1;align=right;verticalAlign=bottom;" parent="123" connectable="0" vertex="1">
                    <mxGeometry x="1" relative="1" as="geometry">
                        <mxPoint x="11" y="1" as="offset"/>
                    </mxGeometry>
                </mxCell>
                <mxCell id="125" value="" style="endArrow=none;html=1;rounded=0;exitX=1.003;exitY=0.438;exitDx=0;exitDy=0;exitPerimeter=0;entryX=-0.006;entryY=0.422;entryDx=0;entryDy=0;entryPerimeter=0;" parent="1" source="122" target="46" edge="1">
                    <mxGeometry relative="1" as="geometry">
                        <mxPoint x="530" y="400" as="sourcePoint"/>
                        <mxPoint x="680" y="390" as="targetPoint"/>
                    </mxGeometry>
                </mxCell>
                <mxCell id="126" value="1" style="resizable=0;html=1;align=right;verticalAlign=bottom;" parent="125" connectable="0" vertex="1">
                    <mxGeometry x="1" relative="1" as="geometry">
                        <mxPoint x="-2" y="1" as="offset"/>
                    </mxGeometry>
                </mxCell>
                <mxCell id="127" value="Data" style="ellipse;whiteSpace=wrap;html=1;align=center;" parent="1" vertex="1">
                    <mxGeometry x="400" y="440" width="100" height="40" as="geometry"/>
                </mxCell>
                <mxCell id="130" value="id" style="ellipse;whiteSpace=wrap;html=1;align=center;fontStyle=4;" parent="1" vertex="1">
                    <mxGeometry x="95.5" y="170" width="100" height="40" as="geometry"/>
                </mxCell>
                <mxCell id="131" value="Contato" style="whiteSpace=wrap;html=1;align=center;" parent="1" vertex="1">
                    <mxGeometry x="670" y="240" width="100" height="40" as="geometry"/>
                </mxCell>
                <mxCell id="133" value="Resolve" style="shape=rhombus;perimeter=rhombusPerimeter;whiteSpace=wrap;html=1;align=center;" parent="1" vertex="1">
                    <mxGeometry x="650" y="300" width="100" height="50" as="geometry"/>
                </mxCell>
                <mxCell id="136" value="" style="endArrow=none;html=1;rounded=0;" parent="1" source="133" target="46" edge="1">
                    <mxGeometry relative="1" as="geometry">
                        <mxPoint x="520" y="300" as="sourcePoint"/>
                        <mxPoint x="680" y="300" as="targetPoint"/>
                    </mxGeometry>
                </mxCell>
                <mxCell id="137" value="N" style="resizable=0;html=1;align=right;verticalAlign=bottom;" parent="136" connectable="0" vertex="1">
                    <mxGeometry x="1" relative="1" as="geometry"/>
                </mxCell>
                <mxCell id="138" value="" style="endArrow=none;html=1;rounded=0;" parent="1" source="133" target="131" edge="1">
                    <mxGeometry relative="1" as="geometry">
                        <mxPoint x="520" y="300" as="sourcePoint"/>
                        <mxPoint x="680" y="300" as="targetPoint"/>
                    </mxGeometry>
                </mxCell>
                <mxCell id="139" value="1" style="resizable=0;html=1;align=right;verticalAlign=bottom;" parent="138" connectable="0" vertex="1">
                    <mxGeometry x="1" relative="1" as="geometry">
                        <mxPoint x="-4" y="15" as="offset"/>
                    </mxGeometry>
                </mxCell>
                <mxCell id="142" value="" style="endArrow=none;html=1;rounded=0;" edge="1" parent="1">
                    <mxGeometry relative="1" as="geometry">
                        <mxPoint x="380" y="405" as="sourcePoint"/>
                        <mxPoint x="310" y="405" as="targetPoint"/>
                    </mxGeometry>
                </mxCell>
                <mxCell id="145" value="" style="endArrow=none;html=1;rounded=0;" edge="1" parent="1">
                    <mxGeometry relative="1" as="geometry">
                        <mxPoint x="520" y="403.88" as="sourcePoint"/>
                        <mxPoint x="594" y="404" as="targetPoint"/>
                    </mxGeometry>
                </mxCell>
            </root>
        </mxGraphModel>
    </diagram>
</mxfile>